<svg xmlns:rdf="http://www.w3.org/1999/02/22-rdf-syntax-ns#" xmlns:svg="http://www.w3.org/2000/svg" xmlns="http://www.w3.org/2000/svg" xmlns:xlink="http://www.w3.org/1999/xlink" id="svg705657" viewBox="0 0 1024 768" height="768px" width="1024px" version="1.1">
  <g id="logo-group">
    <g id="logo-center" transform="translate(0 0)">
      <g id="title" style="font-style:normal;font-weight:700;font-size:72px;line-height:1;font-family:'Comfortaa Bold Alt1';font-variant-ligatures:none;text-align:center;text-anchor:middle" transform="translate(0 0)">
        <path id="path705666" style="font-style:normal;font-weight:700;font-size:72px;line-height:1;font-family:'Comfortaa Bold Alt1';font-variant-ligatures:none;text-align:center;text-anchor:middle" d="m 431.74081,-1.08 c 0.72,-0.648 1.08,-1.584 1.08,-2.664 v -13.608 c 0,-0.576 0.216,-1.08 0.648,-1.512 0.432,-0.432 0.936,-0.648 1.512,-0.648 h 8.496 c 3.528,0 6.696,-0.72 9.504,-2.304 2.808,-1.512 4.968,-3.6 6.552,-6.408 1.584,-2.664 2.376,-5.832 2.376,-9.36 0,-3.6 -0.792,-6.768 -2.376,-9.648 -1.584,-2.808 -3.744,-5.04 -6.552,-6.624 -2.808,-1.584 -5.976,-2.376 -9.504,-2.376 h -14.4 c -1.08,0 -2.016,0.36 -2.664,1.08 -0.72,0.72 -1.08,1.584 -1.08,2.664 v 48.744 c 0,1.08 0.36,1.944 1.08,2.664 0.72,0.72 1.584,1.08 2.664,1.08 1.08,0 1.944,-0.36 2.664,-1.08 z m 19.8,-28.44 c -2.16,2.088 -4.824,3.096 -8.064,3.096 h -8.496 c -0.576,0 -1.08,-0.216 -1.512,-0.648 -0.432,-0.432 -0.648,-0.936 -0.648,-1.512 V -47.16 c 0,-0.576 0.216,-1.08 0.648,-1.512 0.432,-0.432 0.936,-0.648 1.512,-0.648 h 8.496 c 3.24,0 5.904,1.152 8.064,3.312 2.088,2.232 3.168,5.04 3.168,8.424 0,3.312 -1.08,5.976 -3.168,8.064 z" stroke-width="0" stroke-linejoin="miter" stroke-miterlimit="2" fill="#69bdc0" stroke="#69bdc0" transform="translate(0 336.39076) translate(247.0987343500001 -63.02632) scale(3.01) translate(-425.33281 56.232)"></path>
      </g>
    </g>
  </g>
</svg>















